<svg width="230" height="40" viewBox="0 0 230 40" fill="none" xmlns="http://www.w3.org/2000/svg">
<path d="M7.95469 5.912C8.30669 5.848 8.86669 5.768 9.63469 5.672C10.4027 5.544 11.1387 5.48 11.8427 5.48C12.5787 5.48 13.2187 5.544 13.7627 5.672C14.3387 5.768 14.8187 5.96 15.2027 6.248C15.5867 6.536 15.8747 6.936 16.0667 7.448C16.2587 7.96 16.3547 8.632 16.3547 9.464V27.224C16.3547 30.072 15.5387 32.216 13.9067 33.656C12.2747 35.064 9.87469 35.768 6.70669 35.768C5.04269 35.768 3.69869 35.512 2.67469 35C1.93869 34.648 1.39469 34.168 1.04269 33.56C0.722688 32.952 0.562688 32.264 0.562688 31.496C0.562688 30.856 0.642688 30.296 0.802688 29.816C0.994688 29.336 1.21869 28.952 1.47469 28.664C2.08269 28.792 2.59469 28.888 3.01069 28.952C3.45869 28.984 3.93869 29 4.45069 29C5.69869 29 6.59469 28.696 7.13869 28.088C7.68269 27.448 7.95469 26.52 7.95469 25.304V5.912ZM31.8159 29.816C32.3599 29.816 32.9519 29.768 33.5919 29.672C34.2639 29.544 34.7599 29.384 35.0799 29.192V25.352L31.6239 25.64C30.7279 25.704 29.9919 25.896 29.4159 26.216C28.8399 26.536 28.5519 27.016 28.5519 27.656C28.5519 28.296 28.7919 28.824 29.2719 29.24C29.7839 29.624 30.6319 29.816 31.8159 29.816ZM31.4319 10.952C33.1599 10.952 34.7279 11.128 36.1359 11.48C37.5759 11.832 38.7919 12.376 39.7839 13.112C40.8079 13.816 41.5919 14.728 42.1359 15.848C42.6799 16.936 42.9519 18.232 42.9519 19.736V30.488C42.9519 31.32 42.7119 32.008 42.2319 32.552C41.7839 33.064 41.2399 33.512 40.5999 33.896C38.5199 35.144 35.5919 35.768 31.8159 35.768C30.1199 35.768 28.5839 35.608 27.2079 35.288C25.8639 34.968 24.6959 34.488 23.7039 33.848C22.7439 33.208 21.9919 32.392 21.4479 31.4C20.9359 30.408 20.6799 29.256 20.6799 27.944C20.6799 25.736 21.3359 24.04 22.6479 22.856C23.9599 21.672 25.9919 20.936 28.7439 20.648L35.0319 19.976V19.64C35.0319 18.712 34.6159 18.056 33.7839 17.672C32.9839 17.256 31.8159 17.048 30.2799 17.048C29.0639 17.048 27.8799 17.176 26.7279 17.432C25.5759 17.688 24.5359 18.008 23.6079 18.392C23.1919 18.104 22.8399 17.672 22.5519 17.096C22.2639 16.488 22.1199 15.864 22.1199 15.224C22.1199 14.392 22.3119 13.736 22.6959 13.256C23.1119 12.744 23.7359 12.312 24.5679 11.96C25.4959 11.608 26.5839 11.352 27.8319 11.192C29.1119 11.032 30.3119 10.952 31.4319 10.952ZM47.7493 5.192C47.7493 3.976 48.1493 2.952 48.9493 2.12C49.7813 1.288 50.8693 0.871999 52.2133 0.871999C53.5573 0.871999 54.6293 1.288 55.4293 2.12C56.2613 2.952 56.6773 3.976 56.6773 5.192C56.6773 6.408 56.2613 7.432 55.4293 8.264C54.6293 9.096 53.5573 9.512 52.2133 9.512C50.8693 9.512 49.7813 9.096 48.9493 8.264C48.1493 7.432 47.7493 6.408 47.7493 5.192ZM56.2933 34.952C55.9413 35.016 55.4133 35.096 54.7093 35.192C54.0373 35.32 53.3493 35.384 52.6453 35.384C51.9413 35.384 51.3013 35.336 50.7253 35.24C50.1813 35.144 49.7173 34.952 49.3333 34.664C48.9493 34.376 48.6453 33.992 48.4213 33.512C48.2293 33 48.1333 32.344 48.1333 31.544V12.008C48.4853 11.944 48.9973 11.864 49.6693 11.768C50.3733 11.64 51.0773 11.576 51.7813 11.576C52.4853 11.576 53.1093 11.624 53.6533 11.72C54.2293 11.816 54.7093 12.008 55.0933 12.296C55.4773 12.584 55.7653 12.984 55.9573 13.496C56.1813 13.976 56.2933 14.616 56.2933 15.416V34.952ZM69.7922 34.952C69.4402 35.016 68.9122 35.096 68.2082 35.192C67.5362 35.32 66.8482 35.384 66.1442 35.384C65.4402 35.384 64.8002 35.336 64.2242 35.24C63.6802 35.144 63.2162 34.952 62.8322 34.664C62.4482 34.376 62.1442 33.992 61.9202 33.512C61.7282 33 61.6322 32.344 61.6322 31.544V3.704C61.9842 3.64 62.4962 3.56 63.1682 3.464C63.8722 3.336 64.5762 3.272 65.2802 3.272C65.9842 3.272 66.6082 3.32 67.1522 3.416C67.7282 3.512 68.2082 3.704 68.5922 3.992C68.9762 4.28 69.2642 4.68 69.4562 5.192C69.6802 5.672 69.7922 6.312 69.7922 7.112V34.952Z" fill="#9FFF80"/>
<path d="M74.2213 12.632C73.9973 12.28 73.7893 11.8 73.5973 11.192C73.4053 10.584 73.3093 9.944 73.3093 9.272C73.3093 8.024 73.5813 7.128 74.1253 6.584C74.7013 6.04 75.4373 5.768 76.3333 5.768H97.2613C97.4853 6.12 97.6933 6.6 97.8853 7.208C98.0773 7.816 98.1733 8.456 98.1733 9.128C98.1733 10.376 97.8853 11.272 97.3093 11.816C96.7653 12.36 96.0453 12.632 95.1493 12.632H89.8213V34.808C89.4693 34.904 88.9093 35 88.1413 35.096C87.4053 35.192 86.6693 35.24 85.9333 35.24C85.1973 35.24 84.5413 35.176 83.9653 35.048C83.4213 34.952 82.9573 34.76 82.5733 34.472C82.1893 34.184 81.9013 33.784 81.7093 33.272C81.5173 32.76 81.4213 32.088 81.4213 31.256V12.632H74.2213ZM107.851 34.952C107.531 35.048 107.019 35.144 106.315 35.24C105.643 35.336 104.939 35.384 104.203 35.384C103.499 35.384 102.859 35.336 102.283 35.24C101.739 35.144 101.275 34.952 100.891 34.664C100.507 34.376 100.203 33.992 99.9793 33.512C99.7873 33 99.6913 32.344 99.6913 31.544V17.144C99.6913 16.408 99.8193 15.784 100.075 15.272C100.363 14.728 100.763 14.248 101.275 13.832C101.787 13.416 102.411 13.048 103.147 12.728C103.915 12.376 104.731 12.072 105.595 11.816C106.459 11.56 107.355 11.368 108.283 11.24C109.211 11.08 110.139 11 111.067 11C112.603 11 113.819 11.304 114.715 11.912C115.611 12.488 116.059 13.448 116.059 14.792C116.059 15.24 115.995 15.688 115.867 16.136C115.739 16.552 115.579 16.936 115.387 17.288C114.715 17.288 114.027 17.32 113.323 17.384C112.619 17.448 111.931 17.544 111.259 17.672C110.587 17.8 109.947 17.944 109.339 18.104C108.763 18.232 108.267 18.392 107.851 18.584V34.952ZM128.707 29.816C129.251 29.816 129.843 29.768 130.483 29.672C131.155 29.544 131.651 29.384 131.971 29.192V25.352L128.515 25.64C127.619 25.704 126.883 25.896 126.307 26.216C125.731 26.536 125.443 27.016 125.443 27.656C125.443 28.296 125.683 28.824 126.163 29.24C126.675 29.624 127.523 29.816 128.707 29.816ZM128.323 10.952C130.051 10.952 131.619 11.128 133.027 11.48C134.467 11.832 135.683 12.376 136.675 13.112C137.699 13.816 138.483 14.728 139.027 15.848C139.571 16.936 139.843 18.232 139.843 19.736V30.488C139.843 31.32 139.603 32.008 139.123 32.552C138.675 33.064 138.131 33.512 137.491 33.896C135.411 35.144 132.483 35.768 128.707 35.768C127.011 35.768 125.475 35.608 124.099 35.288C122.755 34.968 121.587 34.488 120.595 33.848C119.635 33.208 118.883 32.392 118.339 31.4C117.827 30.408 117.571 29.256 117.571 27.944C117.571 25.736 118.227 24.04 119.539 22.856C120.851 21.672 122.883 20.936 125.635 20.648L131.923 19.976V19.64C131.923 18.712 131.507 18.056 130.675 17.672C129.875 17.256 128.707 17.048 127.171 17.048C125.955 17.048 124.771 17.176 123.619 17.432C122.467 17.688 121.427 18.008 120.499 18.392C120.083 18.104 119.731 17.672 119.443 17.096C119.155 16.488 119.011 15.864 119.011 15.224C119.011 14.392 119.203 13.736 119.587 13.256C120.003 12.744 120.627 12.312 121.459 11.96C122.387 11.608 123.475 11.352 124.723 11.192C126.003 11.032 127.203 10.952 128.323 10.952ZM157.984 17.384C157.184 17.384 156.416 17.512 155.68 17.768C154.976 18.024 154.352 18.408 153.808 18.92C153.296 19.4 152.88 20.008 152.56 20.744C152.24 21.48 152.08 22.344 152.08 23.336C152.08 25.32 152.64 26.808 153.76 27.8C154.912 28.792 156.304 29.288 157.936 29.288C158.896 29.288 159.728 29.176 160.432 28.952C161.136 28.728 161.76 28.488 162.304 28.232C162.944 28.68 163.424 29.176 163.744 29.72C164.064 30.232 164.224 30.856 164.224 31.592C164.224 32.904 163.6 33.928 162.352 34.664C161.104 35.368 159.376 35.72 157.168 35.72C155.152 35.72 153.328 35.432 151.696 34.856C150.064 34.248 148.656 33.416 147.472 32.36C146.32 31.272 145.424 29.976 144.784 28.472C144.144 26.968 143.824 25.304 143.824 23.48C143.824 21.368 144.16 19.528 144.832 17.96C145.536 16.36 146.48 15.048 147.664 14.024C148.848 13 150.208 12.232 151.744 11.72C153.312 11.208 154.96 10.952 156.688 10.952C158.992 10.952 160.768 11.368 162.016 12.2C163.264 13.032 163.888 14.104 163.888 15.416C163.888 16.024 163.744 16.6 163.456 17.144C163.168 17.656 162.832 18.104 162.448 18.488C161.904 18.232 161.248 17.992 160.48 17.768C159.712 17.512 158.88 17.384 157.984 17.384ZM191.116 30.776C190.956 32.28 190.508 33.432 189.772 34.232C189.068 35.032 188.028 35.432 186.652 35.432C185.628 35.432 184.716 35.192 183.916 34.712C183.116 34.2 182.252 33.352 181.324 32.168L176.572 26.216V34.952C176.22 35.016 175.692 35.096 174.988 35.192C174.316 35.32 173.628 35.384 172.924 35.384C172.22 35.384 171.58 35.336 171.004 35.24C170.46 35.144 169.996 34.952 169.612 34.664C169.228 34.376 168.924 33.992 168.7 33.512C168.508 33 168.412 32.344 168.412 31.544V3.752C168.764 3.656 169.276 3.56 169.948 3.464C170.652 3.336 171.356 3.272 172.06 3.272C172.764 3.272 173.388 3.32 173.932 3.416C174.508 3.512 174.988 3.704 175.372 3.992C175.756 4.28 176.044 4.68 176.236 5.192C176.46 5.672 176.572 6.312 176.572 7.112V19.784L184.828 11.336C186.492 11.336 187.82 11.704 188.812 12.44C189.836 13.176 190.348 14.104 190.348 15.224C190.348 15.704 190.268 16.152 190.108 16.568C189.948 16.952 189.692 17.352 189.34 17.768C189.02 18.184 188.588 18.632 188.044 19.112C187.532 19.56 186.924 20.088 186.22 20.696L183.436 23.096L191.116 30.776ZM206.199 35.768C204.311 35.768 202.551 35.512 200.919 35C199.319 34.456 197.911 33.656 196.695 32.6C195.511 31.544 194.567 30.216 193.863 28.616C193.191 27.016 192.855 25.144 192.855 23C192.855 20.888 193.191 19.08 193.863 17.576C194.567 16.04 195.479 14.792 196.599 13.832C197.719 12.84 198.999 12.12 200.439 11.672C201.879 11.192 203.351 10.952 204.855 10.952C206.551 10.952 208.087 11.208 209.463 11.72C210.871 12.232 212.071 12.936 213.063 13.832C214.087 14.728 214.871 15.8 215.415 17.048C215.991 18.296 216.279 19.656 216.279 21.128C216.279 22.216 215.975 23.048 215.367 23.624C214.759 24.2 213.911 24.568 212.823 24.728L200.967 26.504C201.319 27.56 202.039 28.36 203.127 28.904C204.215 29.416 205.463 29.672 206.871 29.672C208.183 29.672 209.415 29.512 210.567 29.192C211.751 28.84 212.711 28.44 213.447 27.992C213.959 28.312 214.391 28.76 214.743 29.336C215.095 29.912 215.271 30.52 215.271 31.16C215.271 32.6 214.599 33.672 213.255 34.376C212.231 34.92 211.079 35.288 209.799 35.48C208.519 35.672 207.319 35.768 206.199 35.768ZM204.855 16.904C204.087 16.904 203.415 17.032 202.839 17.288C202.295 17.544 201.847 17.88 201.495 18.296C201.143 18.68 200.871 19.128 200.679 19.64C200.519 20.12 200.423 20.616 200.391 21.128L208.599 19.784C208.503 19.144 208.151 18.504 207.543 17.864C206.935 17.224 206.039 16.904 204.855 16.904ZM228.367 34.952C228.047 35.048 227.535 35.144 226.831 35.24C226.159 35.336 225.455 35.384 224.719 35.384C224.015 35.384 223.375 35.336 222.799 35.24C222.255 35.144 221.791 34.952 221.407 34.664C221.023 34.376 220.719 33.992 220.495 33.512C220.303 33 220.207 32.344 220.207 31.544V17.144C220.207 16.408 220.335 15.784 220.591 15.272C220.879 14.728 221.279 14.248 221.791 13.832C222.303 13.416 222.927 13.048 223.663 12.728C224.431 12.376 225.247 12.072 226.111 11.816C226.975 11.56 227.871 11.368 228.799 11.24C229.727 11.08 230.655 11 231.583 11C233.119 11 234.335 11.304 235.231 11.912C236.127 12.488 236.575 13.448 236.575 14.792C236.575 15.24 236.511 15.688 236.383 16.136C236.255 16.552 236.095 16.936 235.903 17.288C235.231 17.288 234.543 17.32 233.839 17.384C233.135 17.448 232.447 17.544 231.775 17.672C231.103 17.8 230.463 17.944 229.855 18.104C229.279 18.232 228.783 18.392 228.367 18.584V34.952Z" fill="#001242"/>
</svg>

